<svg version="1.1" id="Layer_1" xmlns="http://www.w3.org/2000/svg" xmlns:xlink="http://www.w3.org/1999/xlink" x="0px" y="0px"
	 width="100%" viewBox="0 0 1254 1254" enable-background="new 0 0 1254 1254" xml:space="preserve">
<path fill="#000000" opacity="0.000000" stroke="none" 
	d="
M702.000000,1255.000000 
	C468.000000,1255.000000 234.500000,1255.000000 1.000000,1255.000000 
	C1.000000,837.000000 1.000000,419.000000 1.000000,1.000000 
	C419.000000,1.000000 837.000000,1.000000 1255.000000,1.000000 
	C1255.000000,419.000000 1255.000000,837.000000 1255.000000,1255.000000 
	C1070.833374,1255.000000 886.666687,1255.000000 702.000000,1255.000000 
M407.691376,1016.436340 
	C407.467743,1016.241089 407.212646,1016.104614 406.394775,1015.597473 
	C384.681580,977.441101 362.985260,939.275085 341.250427,901.131104 
	C319.913055,863.684631 298.523254,826.268005 277.180969,788.824402 
	C257.479858,754.260132 237.790405,719.689209 218.136505,685.098083 
	C207.120529,665.709839 196.236496,646.246460 185.165237,626.890015 
	C183.425232,623.847778 183.248917,621.463013 185.163116,618.333313 
	C189.501038,611.240784 193.362503,603.857544 197.439697,596.604858 
	C236.080566,527.869751 274.773010,459.163605 313.345703,390.390259 
	C327.777985,364.658081 341.931213,338.769379 356.217346,312.955200 
	C373.538940,281.656067 390.866455,250.360184 408.569214,219.014313 
	C408.844360,218.948929 409.021698,218.780533 409.791992,218.345703 
	C410.500122,218.347305 411.208282,218.348892 412.625305,218.710785 
	C415.779938,218.579910 418.934570,218.449036 422.955322,218.250595 
	C425.272278,218.277023 427.589264,218.303452 430.526367,218.688980 
	C432.382446,218.565384 434.238525,218.441788 437.008057,218.246445 
	C441.306793,218.270691 445.605499,218.294937 450.437286,218.670929 
	C451.656952,218.554535 452.876648,218.438156 454.984894,218.252518 
	C457.958313,218.276657 460.931763,218.300797 464.525604,218.683731 
	C466.381805,218.560852 468.238007,218.437973 471.017059,218.244110 
	C483.646576,218.270187 496.276093,218.296265 509.614380,218.689377 
	C512.774170,218.563477 515.934021,218.437561 520.016663,218.240799 
	C527.646118,218.268585 535.275635,218.296371 543.554077,218.687485 
	C545.733398,218.562836 547.912781,218.438187 550.794495,218.244110 
	C551.499084,218.268021 552.203735,218.291931 553.643005,218.686569 
	C557.793457,218.559311 561.943909,218.432068 566.973145,218.234344 
	C569.616943,218.263565 572.260681,218.292786 575.371277,218.665344 
	C576.279358,218.551285 577.187439,218.437241 579.018127,218.250900 
	C593.648010,218.282928 608.277832,218.314941 623.436890,218.705353 
	C624.656189,218.583115 625.875488,218.460876 628.016968,218.259659 
	C647.980103,218.284042 667.943298,218.308426 688.553284,218.700043 
	C690.733337,218.574738 692.913391,218.449432 696.016418,218.253525 
	C720.313171,218.283157 744.609985,218.312805 769.525757,218.703354 
	C771.381409,218.578232 773.237061,218.453094 776.015686,218.256210 
	C788.645874,218.277435 801.276123,218.298660 814.486755,218.679123 
	C816.022705,218.560165 817.558594,218.441208 819.992554,218.248856 
	C823.298157,218.277878 826.603760,218.306900 830.554321,218.706345 
	C832.733276,218.577576 834.912292,218.448822 837.852417,218.243927 
	C838.871338,218.264236 839.890320,218.284531 841.618286,218.669754 
	C844.778687,218.558670 847.939026,218.447586 851.728210,218.146805 
	C852.163635,217.469543 852.599121,216.792297 853.590454,215.700928 
	C864.290039,197.165756 874.991089,178.631424 885.688782,160.095154 
	C898.792542,137.389648 911.893494,114.682556 924.985291,91.398209 
	C924.638611,91.340057 924.291870,91.281906 923.015442,91.190086 
	C802.695984,91.204681 682.376587,91.213417 562.057129,91.236069 
	C490.066132,91.249626 418.075165,91.284988 345.508728,91.102974 
	C345.046417,91.424957 344.584106,91.746941 343.728149,92.639061 
	C338.677795,101.579590 333.583435,110.495598 328.584747,119.464912 
	C307.755341,156.839569 287.035553,194.275574 266.127380,231.606079 
	C216.078171,320.966461 165.965469,410.291290 115.836922,499.607178 
	C94.020935,538.477600 72.191437,577.341187 50.111778,616.061707 
	C47.551983,620.550720 47.512428,623.792175 50.055599,628.212952 
	C79.990875,680.249084 109.697823,732.416443 139.547745,784.501770 
	C162.557388,824.651428 185.686920,864.732422 208.758545,904.846558 
	C241.711166,962.140625 274.672546,1019.429626 307.602417,1076.736694 
	C318.874908,1096.353882 329.977875,1116.069214 341.391205,1135.603760 
	C342.954651,1138.279785 344.366760,1141.207642 349.112213,1141.201904 
	C510.410461,1141.006714 671.708984,1141.057373 833.007446,1141.038452 
	C860.663513,1141.035156 888.319641,1140.880249 916.575562,1140.924805 
	C916.746277,1140.616699 916.917053,1140.308472 916.993713,1139.289917 
	C893.799438,1098.817383 870.605164,1058.344727 846.760193,1017.238953 
	C844.937439,1017.135437 843.114624,1016.941589 841.291870,1016.941406 
	C731.843445,1016.930298 622.394958,1016.950989 512.946533,1016.929199 
	C477.965973,1016.922241 442.985382,1016.806641 407.691376,1016.436340 
M1143.435913,407.943207 
	C1144.091187,406.783813 1144.561157,405.456848 1145.432861,404.493134 
	C1149.994507,399.449799 1148.966309,395.084717 1145.506104,389.470245 
	C1132.663330,368.632141 1120.501343,347.375122 1108.041992,326.300018 
	C1101.283691,314.868286 1094.441284,303.486298 1087.146606,291.260193 
	C1009.891235,425.401855 933.003357,558.905579 855.662109,693.196472 
	C842.146667,669.908264 829.351868,647.722351 816.358337,625.653381 
	C814.772034,622.959167 814.823853,621.051636 816.305054,618.434265 
	C837.776123,580.494873 859.063293,542.451294 880.574158,504.534576 
	C907.008301,457.939484 933.539185,411.398865 960.159546,364.909912 
	C987.280762,317.546204 1014.525513,270.253052 1041.842529,223.002029 
	C1043.965088,219.330719 1043.722534,216.656219 1041.539307,213.089493 
	C1028.855713,192.368805 1016.444153,171.481567 1003.942932,150.649216 
	C995.831970,137.132874 987.724792,123.614227 979.259399,109.502266 
	C975.705017,115.603928 972.471680,121.129570 969.261841,126.668854 
	C955.089966,151.125839 940.929565,175.589523 926.756287,200.045670 
	C898.213562,249.296402 869.622498,298.519196 841.131165,347.799622 
	C813.150024,396.197449 785.209106,444.618744 757.360229,493.092773 
	C733.802673,534.097229 710.413452,575.198364 686.910522,616.234253 
	C684.970520,619.621582 683.443787,622.456726 685.945862,626.657104 
	C698.360352,647.497681 710.473267,668.519470 722.559265,689.553833 
	C734.093262,709.627625 745.444519,729.806458 756.909302,749.920166 
	C782.701782,795.170532 808.580933,840.371704 834.302063,885.662598 
	C863.036926,936.260254 891.589966,986.961243 920.318909,1037.562378 
	C930.450439,1055.407349 940.888123,1073.078369 951.147888,1090.850952 
	C960.197754,1106.527588 969.144348,1122.264282 978.298218,1137.879639 
	C979.139038,1139.313965 981.143677,1140.971680 982.624390,1140.987549 
	C1001.119751,1141.186523 1019.618652,1141.157104 1038.114746,1140.981323 
	C1039.571899,1140.967529 1041.646484,1139.793823 1042.369263,1138.543701 
	C1053.363037,1119.528076 1064.113525,1100.372070 1075.100220,1081.352417 
	C1076.945923,1078.157227 1076.529663,1075.653564 1074.802002,1072.718750 
	C1069.483521,1063.684814 1064.352417,1054.540649 1059.103149,1045.465698 
	C1023.797974,984.430786 988.457947,923.415955 953.181213,862.364563 
	C942.189758,843.342224 931.484131,824.153442 920.346619,805.217957 
	C918.175781,801.526978 918.305969,798.985474 920.390564,795.374817 
	C956.926575,732.093506 993.294861,668.715454 1029.741089,605.382324 
	C1067.498291,539.770996 1105.300049,474.185303 1143.435913,407.943207 
z"/>
<path fill="#1DF86D" opacity="1.000000" stroke="none" 
	d="
M915.975708,1140.795532 
	C888.319641,1140.880249 860.663513,1141.035156 833.007446,1141.038452 
	C671.708984,1141.057373 510.410461,1141.006714 349.112213,1141.201904 
	C344.366760,1141.207642 342.954651,1138.279785 341.391205,1135.603760 
	C329.977875,1116.069214 318.874908,1096.353882 307.602417,1076.736694 
	C274.672546,1019.429626 241.711166,962.140625 208.758545,904.846558 
	C185.686920,864.732422 162.557388,824.651428 139.547745,784.501770 
	C109.697823,732.416443 79.990875,680.249084 50.055599,628.212952 
	C47.512428,623.792175 47.551983,620.550720 50.111778,616.061707 
	C72.191437,577.341187 94.020935,538.477600 115.836922,499.607178 
	C165.965469,410.291290 216.078171,320.966461 266.127380,231.606079 
	C287.035553,194.275574 307.755341,156.839569 328.584747,119.464912 
	C333.583435,110.495598 338.677795,101.579590 344.195251,92.336014 
	C345.136261,91.792160 345.610229,91.551361 346.084167,91.310562 
	C418.075165,91.284988 490.066132,91.249626 562.057129,91.236069 
	C682.376587,91.213417 802.695984,91.204681 923.622314,91.374611 
	C924.451050,91.759987 924.706543,91.898987 924.995667,91.976143 
	C911.893494,114.682556 898.792542,137.389648 885.688782,160.095154 
	C874.991089,178.631424 864.290039,197.165756 852.977905,215.743774 
	C846.659485,216.189331 840.953735,216.941116 835.247620,216.943665 
	C695.263977,217.006119 555.280334,216.982605 415.296753,217.039948 
	C412.902039,217.040939 410.507690,217.847672 408.116699,218.476151 
	C408.120239,218.673889 408.191437,219.062927 408.191406,219.062927 
	C390.866455,250.360184 373.538940,281.656067 356.217346,312.955200 
	C341.931213,338.769379 327.777985,364.658081 313.345703,390.390259 
	C274.773010,459.163605 236.080566,527.869751 197.439697,596.604858 
	C193.362503,603.857544 189.501038,611.240784 185.163116,618.333313 
	C183.248917,621.463013 183.425232,623.847778 185.165237,626.890015 
	C196.236496,646.246460 207.120529,665.709839 218.136505,685.098083 
	C237.790405,719.689209 257.479858,754.260132 277.180969,788.824402 
	C298.523254,826.268005 319.913055,863.684631 341.250427,901.131104 
	C362.985260,939.275085 384.681580,977.441101 406.655273,1016.037964 
	C406.915741,1016.478455 407.037933,1016.913330 407.381104,1017.141663 
	C410.360504,1017.583496 412.996704,1017.982788 415.633026,1017.983582 
	C511.417664,1018.012207 607.202332,1018.016785 702.986938,1017.994751 
	C751.128235,1017.983643 799.269592,1017.914917 847.410889,1017.872192 
	C870.605164,1058.344727 893.799438,1098.817383 916.823853,1139.729248 
	C916.378845,1140.324341 916.152771,1140.533325 915.975708,1140.795532 
z"/>
<path fill="#6B11FA" opacity="1.000000" stroke="none" 
	d="
M1143.259033,408.265808 
	C1105.300049,474.185303 1067.498291,539.770996 1029.741089,605.382324 
	C993.294861,668.715454 956.926575,732.093506 920.390564,795.374817 
	C918.305969,798.985474 918.175781,801.526978 920.346619,805.217957 
	C931.484131,824.153442 942.189758,843.342224 953.181213,862.364563 
	C988.457947,923.415955 1023.797974,984.430786 1059.103149,1045.465698 
	C1064.352417,1054.540649 1069.483521,1063.684814 1074.802002,1072.718750 
	C1076.529663,1075.653564 1076.945923,1078.157227 1075.100220,1081.352417 
	C1064.113525,1100.372070 1053.363037,1119.528076 1042.369263,1138.543701 
	C1041.646484,1139.793823 1039.571899,1140.967529 1038.114746,1140.981323 
	C1019.618652,1141.157104 1001.119751,1141.186523 982.624390,1140.987549 
	C981.143677,1140.971680 979.139038,1139.313965 978.298218,1137.879639 
	C969.144348,1122.264282 960.197754,1106.527588 951.147888,1090.850952 
	C940.888123,1073.078369 930.450439,1055.407349 920.318909,1037.562378 
	C891.589966,986.961243 863.036926,936.260254 834.302063,885.662598 
	C808.580933,840.371704 782.701782,795.170532 756.909302,749.920166 
	C745.444519,729.806458 734.093262,709.627625 722.559265,689.553833 
	C710.473267,668.519470 698.360352,647.497681 685.945862,626.657104 
	C683.443787,622.456726 684.970520,619.621582 686.910522,616.234253 
	C710.413452,575.198364 733.802673,534.097229 757.360229,493.092773 
	C785.209106,444.618744 813.150024,396.197449 841.131165,347.799622 
	C869.622498,298.519196 898.213562,249.296402 926.756287,200.045670 
	C940.929565,175.589523 955.089966,151.125839 969.261841,126.668854 
	C972.471680,121.129570 975.705017,115.603928 979.259399,109.502266 
	C987.724792,123.614227 995.831970,137.132874 1003.942932,150.649216 
	C1016.444153,171.481567 1028.855713,192.368805 1041.539307,213.089493 
	C1043.722534,216.656219 1043.965088,219.330719 1041.842529,223.002029 
	C1014.525513,270.253052 987.280762,317.546204 960.159546,364.909912 
	C933.539185,411.398865 907.008301,457.939484 880.574158,504.534576 
	C859.063293,542.451294 837.776123,580.494873 816.305054,618.434265 
	C814.823853,621.051636 814.772034,622.959167 816.358337,625.653381 
	C829.351868,647.722351 842.146667,669.908264 855.662109,693.196472 
	C933.003357,558.905579 1009.891235,425.401855 1087.146606,291.260193 
	C1094.441284,303.486298 1101.283691,314.868286 1108.041992,326.300018 
	C1120.501343,347.375122 1132.663330,368.632141 1145.506104,389.470245 
	C1148.966309,395.084717 1149.994507,399.449799 1145.432861,404.493134 
	C1144.561157,405.456848 1144.091187,406.783813 1143.259033,408.265808 
z"/>
<path fill="#2FFA79" opacity="1.000000" stroke="none" 
	d="
M408.113159,218.278412 
	C410.507690,217.847672 412.902039,217.040939 415.296753,217.039948 
	C555.280334,216.982605 695.263977,217.006119 835.247620,216.943665 
	C840.953735,216.941116 846.659485,216.189331 852.699951,215.950836 
	C852.599121,216.792297 852.163635,217.469543 850.962891,218.121796 
	C847.101440,218.166138 844.005310,218.235474 840.909241,218.304825 
	C839.890320,218.284531 838.871338,218.264236 837.033630,218.164902 
	C834.113037,218.169235 832.011169,218.252579 829.909363,218.335922 
	C826.603760,218.306900 823.298157,218.277878 819.121582,218.166031 
	C816.802490,218.162094 815.354431,218.240997 813.906311,218.319885 
	C801.276123,218.298660 788.645874,218.277435 775.123108,218.173203 
	C772.455933,218.174271 770.681335,218.258362 768.906738,218.342438 
	C744.609985,218.312805 720.313171,218.283157 695.116760,218.169983 
	C692.113525,218.168549 690.010010,218.250671 687.906433,218.332794 
	C667.943298,218.308426 647.980103,218.284042 627.146545,218.179962 
	C625.153320,218.182510 624.030518,218.264725 622.907715,218.346954 
	C608.277832,218.314941 593.648010,218.282928 578.166138,218.169159 
	C576.510925,218.165634 575.707703,218.243820 574.904480,218.322021 
	C572.260681,218.292786 569.616943,218.263565 566.075073,218.152267 
	C561.087463,218.152069 556.997925,218.233948 552.908325,218.315826 
	C552.203735,218.291931 551.499084,218.268021 550.005127,218.160339 
	C547.112183,218.159088 545.008606,218.241623 542.905090,218.324158 
	C535.275635,218.296371 527.646118,218.268585 519.104126,218.157730 
	C515.096252,218.157211 512.000916,218.239777 508.905609,218.322327 
	C496.276093,218.296265 483.646576,218.270187 470.124084,218.161896 
	C467.455811,218.161438 465.680511,218.243179 463.905182,218.324921 
	C460.931763,218.300797 457.958313,218.276657 454.131012,218.167740 
	C452.152832,218.161697 451.028534,218.240433 449.904236,218.319183 
	C445.605499,218.294937 441.306793,218.270691 436.120087,218.163300 
	C433.456818,218.163391 431.681519,218.246643 429.906219,218.329895 
	C427.589264,218.303452 425.272278,218.277023 422.071655,218.165939 
	C418.097443,218.171021 415.006927,218.260757 411.916412,218.350494 
	C411.208282,218.348892 410.500122,218.347305 409.210388,218.322968 
	C408.456909,218.292953 408.285034,218.285690 408.113159,218.278412 
z"/>
<path fill="#11DF51" opacity="1.000000" stroke="none" 
	d="
M847.085571,1017.555542 
	C799.269592,1017.914917 751.128235,1017.983643 702.986938,1017.994751 
	C607.202332,1018.016785 511.417664,1018.012207 415.633026,1017.983582 
	C412.996704,1017.982788 410.360504,1017.583496 407.628906,1017.132629 
	C407.533600,1016.895264 408.004822,1016.740784 408.004822,1016.740784 
	C442.985382,1016.806641 477.965973,1016.922241 512.946533,1016.929199 
	C622.394958,1016.950989 731.843445,1016.930298 841.291870,1016.941406 
	C843.114624,1016.941589 844.937439,1017.135437 847.085571,1017.555542 
z"/>
<path fill="#07541E" opacity="1.000000" stroke="none" 
	d="
M553.275635,218.501190 
	C556.997925,218.233948 561.087463,218.152069 565.635742,218.187500 
	C561.943909,218.432068 557.793457,218.559311 553.275635,218.501190 
z"/>
<path fill="#07541E" opacity="1.000000" stroke="none" 
	d="
M841.263794,218.487289 
	C844.005310,218.235474 847.101440,218.166138 850.648438,218.216644 
	C847.939026,218.447586 844.778687,218.558670 841.263794,218.487289 
z"/>
<path fill="#07541E" opacity="1.000000" stroke="none" 
	d="
M412.270874,218.530640 
	C415.006927,218.260757 418.097443,218.171021 421.638580,218.199722 
	C418.934570,218.449036 415.779938,218.579910 412.270874,218.530640 
z"/>
<path fill="#07541E" opacity="1.000000" stroke="none" 
	d="
M509.260010,218.505859 
	C512.000916,218.239777 515.096252,218.157211 518.642700,218.193161 
	C515.934021,218.437561 512.774170,218.563477 509.260010,218.505859 
z"/>
<path fill="#07541E" opacity="1.000000" stroke="none" 
	d="
M543.229614,218.505829 
	C545.008606,218.241623 547.112183,218.159088 549.653931,218.195038 
	C547.912781,218.438187 545.733398,218.562836 543.229614,218.505829 
z"/>
<path fill="#07541E" opacity="1.000000" stroke="none" 
	d="
M830.231812,218.521133 
	C832.011169,218.252579 834.113037,218.169235 836.653076,218.202972 
	C834.912292,218.448822 832.733276,218.577576 830.231812,218.521133 
z"/>
<path fill="#07541E" opacity="1.000000" stroke="none" 
	d="
M688.229858,218.516418 
	C690.010010,218.250671 692.113525,218.168549 694.655273,218.205276 
	C692.913391,218.449432 690.733337,218.574738 688.229858,218.516418 
z"/>
<path fill="#07541E" opacity="1.000000" stroke="none" 
	d="
M464.215393,218.504333 
	C465.680511,218.243179 467.455811,218.161438 469.662659,218.197388 
	C468.238007,218.437973 466.381805,218.560852 464.215393,218.504333 
z"/>
<path fill="#07541E" opacity="1.000000" stroke="none" 
	d="
M769.216248,218.522888 
	C770.681335,218.258362 772.455933,218.174271 774.661621,218.209076 
	C773.237061,218.453094 771.381409,218.578232 769.216248,218.522888 
z"/>
<path fill="#07541E" opacity="1.000000" stroke="none" 
	d="
M430.216309,218.509430 
	C431.681519,218.246643 433.456818,218.163391 435.663361,218.199173 
	C434.238525,218.441788 432.382446,218.565384 430.216309,218.509430 
z"/>
<path fill="#07541E" opacity="1.000000" stroke="none" 
	d="
M814.196533,218.499512 
	C815.354431,218.240997 816.802490,218.162094 818.672607,218.202728 
	C817.558594,218.441208 816.022705,218.560165 814.196533,218.499512 
z"/>
<path fill="#07541E" opacity="1.000000" stroke="none" 
	d="
M623.172302,218.526154 
	C624.030518,218.264725 625.153320,218.182510 626.685425,218.219452 
	C625.875488,218.460876 624.656189,218.583115 623.172302,218.526154 
z"/>
<path fill="#07541E" opacity="1.000000" stroke="none" 
	d="
M450.170776,218.495056 
	C451.028534,218.240433 452.152832,218.161697 453.686707,218.202362 
	C452.876648,218.438156 451.656952,218.554535 450.170776,218.495056 
z"/>
<path fill="#07541E" opacity="1.000000" stroke="none" 
	d="
M575.137878,218.493683 
	C575.707703,218.243820 576.510925,218.165634 577.704834,218.205322 
	C577.187439,218.437241 576.279358,218.551285 575.137878,218.493683 
z"/>
<path fill="#1FA848" opacity="1.000000" stroke="none" 
	d="
M345.796448,91.206772 
	C345.610229,91.551361 345.136261,91.792160 344.392090,92.050949 
	C344.584106,91.746941 345.046417,91.424957 345.796448,91.206772 
z"/>
<path fill="#07541E" opacity="1.000000" stroke="none" 
	d="
M408.116699,218.476166 
	C408.285034,218.285690 408.456909,218.292953 408.864990,218.404663 
	C409.021698,218.780533 408.844360,218.948929 408.380310,219.038620 
	C408.191437,219.062927 408.120239,218.673889 408.116699,218.476166 
z"/>
<path fill="#1FA848" opacity="1.000000" stroke="none" 
	d="
M924.990479,91.687180 
	C924.706543,91.898987 924.451050,91.759987 924.087158,91.391449 
	C924.291870,91.281906 924.638611,91.340057 924.990479,91.687180 
z"/>
<path fill="#011D07" opacity="1.000000" stroke="none" 
	d="
M407.848083,1016.588562 
	C408.004822,1016.740784 407.533600,1016.895264 407.285767,1016.904297 
	C407.037933,1016.913330 406.915741,1016.478455 406.920959,1016.252686 
	C407.212646,1016.104614 407.467743,1016.241089 407.848083,1016.588562 
z"/>
<path fill="#14D159" opacity="1.000000" stroke="none" 
	d="
M916.275635,1140.860107 
	C916.152771,1140.533325 916.378845,1140.324341 916.870972,1140.084473 
	C916.917053,1140.308472 916.746277,1140.616699 916.275635,1140.860107 
z"/>
</svg>